<svg width="427" height="119" viewBox="0 0 427 119" fill="none" xmlns="http://www.w3.org/2000/svg">
<g clip-path="url(#clip0_129_418)">
<g clip-path="url(#clip1_129_418)">
<path d="M17.8601 7.72999H17.8401C16.0401 3.59999 14.0201 1.62999 11.8601 1.36999V17.86H14.0201V18.24H4.4201V17.86H6.5801V1.36999C4.4401 1.62999 2.4201 3.59999 0.620098 7.72999H0.600098V0.959991H17.8601V7.72999Z" fill="white"/>
<path d="M33.7902 17.86V18.24H26.8302V17.86H27.7902V10.64C27.7902 8.76999 27.3302 8.13999 26.3502 8.13999C25.8702 8.13999 25.3902 8.27999 24.9102 8.49999V17.86H25.8702V18.24H18.9102V17.86H20.1102V3.57999L18.7402 2.39999L24.9102 0.23999V8.15999C26.4702 6.81999 27.8602 5.87999 29.4902 5.87999C31.5302 5.87999 32.5902 7.14999 32.5902 9.59999V17.86H33.7902Z" fill="white"/>
<path d="M45.8403 16.08C44.8303 17.62 43.2203 18.48 40.9903 18.48C37.6103 18.48 34.8203 16.13 34.8203 12.41C34.8203 8.91 37.1703 6 41.0103 6C43.2703 6 44.8303 7.32 44.8303 9.07C44.8303 11.06 43.2903 12.81 40.4103 13.89C41.7803 15.23 43.5103 16.12 45.1103 16.12C45.3503 16.12 45.5903 16.1 45.8103 16.05L45.8303 16.07L45.8403 16.08ZM37.8003 8.26C37.8003 10.25 38.8303 12.27 40.2703 13.76C40.9403 12.9 41.2103 11.94 41.2103 10.71C41.2103 8.62 39.8203 6.85 38.7903 6.85C38.1703 6.85 37.8103 7.38 37.8103 8.27L37.8003 8.26Z" fill="white"/>
<path d="M52.1499 17.76L53.5699 11.62H53.5899L56.9299 17.91C57.4599 18.13 57.7499 18.15 58.1799 18.15C59.8799 18.15 61.1299 17.02 61.1299 15.49C61.1299 14.34 60.5099 13.35 59.1099 12.61L56.3699 11.12C54.1399 9.89999 52.8199 8.25999 52.8199 5.83999C52.8199 2.83999 55.0299 0.48999 58.9399 0.48999C60.8099 0.48999 62.5199 0.74999 64.3899 1.54999L62.9699 6.84999H62.9499L59.7799 1.15999C59.2999 1.03999 59.0799 1.01999 58.5999 1.01999C57.3799 1.01999 56.3199 1.90999 56.3199 3.22999C56.3199 4.28999 56.9199 5.21999 58.6999 6.27999L61.8399 8.17999C63.8599 9.37999 65.0099 10.84 65.0099 13.03C65.0099 16.34 62.2299 18.74 58.2199 18.74C56.1799 18.74 54.0899 18.43 52.1499 17.78V17.76Z" fill="white"/>
<path d="M80.5 17.86V18.24H74.5V16.39C72.92 17.54 71.55 18.5 70.2 18.5C68.04 18.5 67.1 17.25 67.1 14.4V9.24L65.73 8.06L71.9 5.9V13.44C71.9 15.46 72.07 16.25 73.27 16.25C73.65 16.25 74.09 16.15 74.49 16.01V9.12L73.12 7.94L79.29 5.78V17.85H80.49L80.5 17.86Z" fill="white"/>
<path d="M81.5303 17.86L82.2703 13.95H82.2903L85.2703 17.93C85.6103 18.03 85.7703 18.05 86.0603 18.05C87.1203 18.05 87.8403 17.5 87.8403 16.51C87.8403 15.79 87.4103 15.38 86.4003 14.85L84.8203 14.01C82.8303 12.95 81.8703 11.83 81.8703 9.99999C81.8703 7.57999 83.8403 5.98999 87.0303 5.98999C88.5903 5.98999 89.8403 6.24999 91.0103 6.68999L90.0703 10.48H90.0503L87.2703 6.51999C87.1503 6.46999 86.9803 6.44999 86.8603 6.44999C85.8003 6.44999 85.2803 7.04999 85.2803 7.71999C85.2803 8.55999 85.6603 9.15999 87.0803 9.89999L88.8803 10.86C90.5403 11.75 91.4003 12.95 91.4003 14.44C91.4003 16.94 88.8803 18.47 85.9303 18.47C84.8003 18.47 83.2203 18.35 81.5403 17.85L81.5303 17.86Z" fill="white"/>
<path d="M102.38 16.03C101.49 17.45 99.9101 18.48 97.7001 18.48C94.8401 18.48 93.7201 16.8 93.7201 13.68V6.86H91.8701V6.84L98.5201 1.61V6.48H101.9V6.86H98.5201V12.45C98.5201 15.23 99.1701 16.27 100.94 16.27C101.47 16.27 101.88 16.2 102.36 16.01L102.38 16.03Z" fill="white"/>
<path d="M114.96 17.86V18.24H108.96V16.87C107.83 17.83 106.56 18.48 105.24 18.48C103.68 18.48 102.62 17.59 102.62 16.08C102.62 13.87 104.97 12.41 108.96 11.98C108.96 9.34 107.9 8.02 106.08 8.02C105 8.02 104.26 8.31 103.44 8.93L103.32 8.81C104.95 6.99 106.73 6 109.13 6C112.15 6 113.76 7.73 113.76 11.21V17.86H114.96ZM108.96 16.54V12.29C107.52 12.7 106.97 13.61 106.97 14.88C106.97 16.01 107.45 16.61 108.41 16.61C108.55 16.61 108.75 16.59 108.96 16.54Z" fill="white"/>
<path d="M115.85 17.86H117.05V9.09999L115.68 7.91999L121.85 5.75999V17.86H123.05V18.24H115.85V17.86ZM116.79 2.66999C116.79 1.08999 117.75 0.00999451 119.45 0.00999451C121.15 0.00999451 122.11 1.08999 122.11 2.66999C122.11 4.24999 121.15 5.35999 119.45 5.35999C117.75 5.35999 116.79 4.27999 116.79 2.66999Z" fill="white"/>
<path d="M138.82 17.86V18.24H131.86V17.86H132.82V10.64C132.82 8.76999 132.36 8.13999 131.38 8.13999C130.9 8.13999 130.42 8.27999 129.94 8.49999V17.86H130.9V18.24H123.94V17.86H125.14V9.09999L123.77 7.91999L129.94 5.75999V8.15999C131.5 6.81999 132.89 5.87999 134.52 5.87999C136.56 5.87999 137.62 7.14999 137.62 9.59999V17.86H138.82Z" fill="white"/>
<path d="M151.94 17.86V18.24H145.94V16.87C144.81 17.83 143.54 18.48 142.22 18.48C140.66 18.48 139.6 17.59 139.6 16.08C139.6 13.87 141.95 12.41 145.94 11.98C145.94 9.34 144.88 8.02 143.06 8.02C141.98 8.02 141.24 8.31 140.42 8.93L140.3 8.81C141.93 6.99 143.71 6 146.11 6C149.13 6 150.74 7.73 150.74 11.21V17.86H151.94ZM145.94 16.54V12.29C144.5 12.7 143.95 13.61 143.95 14.88C143.95 16.01 144.43 16.61 145.39 16.61C145.53 16.61 145.73 16.59 145.94 16.54Z" fill="white"/>
<path d="M167.04 11.69C167.04 16.03 164.52 18.48 159.72 18.48C157.99 18.48 155.54 18.12 153.79 17.57V3.57999L152.42 2.39999L158.59 0.23999V8.13999C159.86 6.83999 161.35 5.99999 162.77 5.99999C165.19 5.99999 167.04 7.96999 167.04 11.69ZM161.9 13.06C161.9 9.83999 161.2 8.23999 159.6 8.23999C159.24 8.23999 158.93 8.33999 158.59 8.47999V17.65C158.93 17.89 159.36 18.01 159.77 18.01C161.02 18.01 161.91 16.52 161.91 13.07L161.9 13.06Z" fill="white"/>
<path d="M168.21 17.86H169.41V3.57999L168.04 2.39999L174.21 0.23999V17.86H175.41V18.24H168.21V17.86Z" fill="white"/>
<path d="M187.46 16.08C186.45 17.62 184.84 18.48 182.61 18.48C179.23 18.48 176.44 16.13 176.44 12.41C176.44 8.91 178.79 6 182.63 6C184.89 6 186.45 7.32 186.45 9.07C186.45 11.06 184.91 12.81 182.03 13.89C183.4 15.23 185.13 16.12 186.73 16.12C186.97 16.12 187.21 16.1 187.43 16.05L187.45 16.07L187.46 16.08ZM179.42 8.26C179.42 10.25 180.45 12.27 181.89 13.76C182.56 12.9 182.83 11.94 182.83 10.71C182.83 8.62 181.44 6.85 180.41 6.85C179.79 6.85 179.43 7.38 179.43 8.27L179.42 8.26Z" fill="white"/>
<path d="M210.6 13.58C210.6 16.41 207.62 18.24 203.26 18.24H193.64V17.86H195.56V2.25999L193.42 0.959991H202.09C206.82 0.959991 209.63 2.25999 209.63 4.91999C209.63 6.95999 208.09 8.29999 204.33 8.97999C208.1 9.21999 210.62 10.88 210.62 13.59L210.6 13.58ZM200.83 1.33999V8.82999H201.26C203.2 8.82999 204.09 7.52999 204.09 5.08999C204.09 3.02999 203.44 1.34999 201.21 1.34999H200.83V1.33999ZM205.08 13.65C205.08 10.67 203.52 9.20999 201.5 9.20999H200.83V17.85H201.33C203.99 17.85 205.07 16.46 205.07 13.65H205.08Z" fill="white"/>
<path d="M211.89 17.86H213.09V3.57999L211.72 2.39999L217.89 0.23999V17.86H219.09V18.24H211.89V17.86Z" fill="white"/>
<path d="M220.13 12.17C220.13 8.74 222.82 6 226.73 6C230.64 6 233.55 8.4 233.55 12.17C233.55 15.67 231.32 18.48 226.76 18.48C223.3 18.48 220.14 16.03 220.14 12.17H220.13ZM230.43 16.39C230.43 14.37 226.4 6.86 224.29 6.86C223.69 6.86 223.33 7.29 223.33 8.04C223.33 10.39 227.48 17.62 229.45 17.62C230.1 17.62 230.43 17.21 230.43 16.4V16.39Z" fill="white"/>
<path d="M235.22 12.48C235.24 8.95 237.76 6 241.84 6C243.21 6 244.41 6.19 245.97 6.77L245.03 13.47H245.01C242.78 9.25 240.69 6.94 239.25 6.94C238.65 6.94 238.29 7.37 238.29 8.24C238.29 12.1 242.08 16.18 245.47 16.18C245.78 16.18 245.97 16.16 246.19 16.08L246.21 16.1C245.13 17.73 243.38 18.48 241.24 18.48C237.98 18.48 235.19 16.18 235.22 12.48Z" fill="white"/>
<path d="M262.73 17.86V18.24H256.75L253.17 12.65V17.86H253.89V18.24H247.17V17.86H248.37V3.57999L247 2.39999L253.17 0.23999V12.27L254.99 10.95C256.17 10.09 256.74 9.50999 256.74 8.42999C256.74 7.80999 256.48 7.10999 255.71 6.71999V6.59999H260.51C260.65 6.78999 260.7 6.95999 260.7 7.19999C260.7 8.15999 259.57 8.85999 257.99 9.54999L256.53 10.2L261.74 17.86H262.72H262.73Z" fill="white"/>
<path d="M262.2 12.48C262.22 8.95 264.74 6 268.82 6C270.19 6 271.39 6.19 272.95 6.77L272.01 13.47H271.99C269.76 9.25 267.67 6.94 266.23 6.94C265.63 6.94 265.27 7.37 265.27 8.24C265.27 12.1 269.06 16.18 272.45 16.18C272.76 16.18 272.95 16.16 273.17 16.08L273.19 16.1C272.11 17.73 270.36 18.48 268.22 18.48C264.96 18.48 262.17 16.18 262.2 12.48Z" fill="white"/>
<path d="M289.03 17.86V18.24H282.07V17.86H283.03V10.64C283.03 8.76999 282.57 8.13999 281.59 8.13999C281.11 8.13999 280.63 8.27999 280.15 8.49999V17.86H281.11V18.24H274.15V17.86H275.35V3.57999L273.98 2.39999L280.15 0.23999V8.15999C281.71 6.81999 283.1 5.87999 284.73 5.87999C286.77 5.87999 287.83 7.14999 287.83 9.59999V17.86H289.03Z" fill="white"/>
<path d="M302.16 17.86V18.24H296.16V16.87C295.03 17.83 293.76 18.48 292.44 18.48C290.88 18.48 289.82 17.59 289.82 16.08C289.82 13.87 292.17 12.41 296.16 11.98C296.16 9.34 295.1 8.02 293.28 8.02C292.2 8.02 291.46 8.31 290.64 8.93L290.52 8.81C292.15 6.99 293.93 6 296.33 6C299.35 6 300.96 7.73 300.96 11.21V17.86H302.16ZM296.16 16.54V12.29C294.72 12.7 294.17 13.61 294.17 14.88C294.17 16.01 294.65 16.61 295.61 16.61C295.75 16.61 295.95 16.59 296.16 16.54Z" fill="white"/>
<path d="M303.05 17.86H304.25V9.09999L302.88 7.91999L309.05 5.75999V17.86H310.25V18.24H303.05V17.86ZM303.99 2.66999C303.99 1.08999 304.95 0.00999451 306.65 0.00999451C308.35 0.00999451 309.31 1.08999 309.31 2.66999C309.31 4.24999 308.35 5.35999 306.65 5.35999C304.95 5.35999 303.99 4.27999 303.99 2.66999Z" fill="white"/>
<path d="M326.02 17.86V18.24H319.06V17.86H320.02V10.64C320.02 8.76999 319.56 8.13999 318.58 8.13999C318.1 8.13999 317.62 8.27999 317.14 8.49999V17.86H318.1V18.24H311.14V17.86H312.34V9.09999L310.97 7.91999L317.14 5.75999V8.15999C318.7 6.81999 320.09 5.87999 321.72 5.87999C323.76 5.87999 324.82 7.14999 324.82 9.59999V17.86H326.02Z" fill="white"/>
<path d="M332.52 17.76L333.94 11.62H333.96L337.3 17.91C337.83 18.13 338.12 18.15 338.55 18.15C340.25 18.15 341.5 17.02 341.5 15.49C341.5 14.34 340.88 13.35 339.48 12.61L336.74 11.12C334.51 9.89999 333.19 8.25999 333.19 5.83999C333.19 2.83999 335.4 0.48999 339.31 0.48999C341.18 0.48999 342.89 0.74999 344.76 1.54999L343.34 6.84999H343.32L340.15 1.15999C339.67 1.03999 339.45 1.01999 338.97 1.01999C337.75 1.01999 336.69 1.90999 336.69 3.22999C336.69 4.28999 337.29 5.21999 339.07 6.27999L342.21 8.17999C344.23 9.37999 345.38 10.84 345.38 13.03C345.38 16.34 342.6 18.74 338.59 18.74C336.55 18.74 334.46 18.43 332.52 17.78V17.76Z" fill="white"/>
<path d="M360.86 17.86V18.24H354.86V16.39C353.28 17.54 351.91 18.5 350.56 18.5C348.4 18.5 347.46 17.25 347.46 14.4V9.24L346.09 8.06L352.26 5.9V13.44C352.26 15.46 352.43 16.25 353.63 16.25C354.01 16.25 354.45 16.15 354.85 16.01V9.12L353.48 7.94L359.65 5.78V17.85H360.85L360.86 17.86Z" fill="white"/>
<path d="M384.02 17.86V18.24H377.06V17.86H378.02V10.64C378.02 8.76999 377.73 8.13999 376.7 8.13999C376.2 8.13999 375.69 8.25999 375.21 8.49999C375.26 8.83999 375.28 9.19999 375.28 9.59999V17.86H376.24V18.24H369.52V17.86H370.48V10.64C370.48 8.76999 370.19 8.13999 369.16 8.13999C368.68 8.13999 368.2 8.23999 367.74 8.44999V17.86H368.7V18.24H361.74V17.86H362.94V9.09999L361.57 7.91999L367.74 5.75999V8.15999C369.68 6.59999 370.96 5.87999 372.3 5.87999C373.93 5.87999 374.84 6.69999 375.16 8.25999C377.18 6.62999 378.47 5.87999 379.84 5.87999C381.88 5.87999 382.82 7.14999 382.82 9.59999V17.86H384.02Z" fill="white"/>
<path d="M407.18 17.86V18.24H400.22V17.86H401.18V10.64C401.18 8.76999 400.89 8.13999 399.86 8.13999C399.36 8.13999 398.85 8.25999 398.37 8.49999C398.42 8.83999 398.44 9.19999 398.44 9.59999V17.86H399.4V18.24H392.68V17.86H393.64V10.64C393.64 8.76999 393.35 8.13999 392.32 8.13999C391.84 8.13999 391.36 8.23999 390.9 8.44999V17.86H391.86V18.24H384.9V17.86H386.1V9.09999L384.73 7.91999L390.9 5.75999V8.15999C392.84 6.59999 394.12 5.87999 395.46 5.87999C397.09 5.87999 398 6.69999 398.32 8.25999C400.34 6.62999 401.63 5.87999 403 5.87999C405.04 5.87999 405.98 7.14999 405.98 9.59999V17.86H407.18Z" fill="white"/>
<path d="M408.07 17.86H409.27V9.09999L407.9 7.91999L414.07 5.75999V17.86H415.27V18.24H408.07V17.86ZM409.01 2.66999C409.01 1.08999 409.97 0.00999451 411.67 0.00999451C413.37 0.00999451 414.33 1.08999 414.33 2.66999C414.33 4.24999 413.37 5.35999 411.67 5.35999C409.97 5.35999 409.01 4.27999 409.01 2.66999Z" fill="white"/>
<path d="M426.33 16.03C425.44 17.45 423.86 18.48 421.65 18.48C418.79 18.48 417.67 16.8 417.67 13.68V6.86H415.82V6.84L422.47 1.61V6.48H425.85V6.86H422.47V12.45C422.47 15.23 423.12 16.27 424.89 16.27C425.42 16.27 425.83 16.2 426.31 16.01L426.33 16.03Z" fill="white"/>
<path d="M18.58 67.86V68.24H9.75V67.86H11.72L9.82 63.35H4.3L2.84 67.86H5.31V68.24H0V67.86H0.98L8.61 50.48H9.86L17.47 67.86H18.57H18.58ZM9.63 62.92L6.68 55.96L4.42 62.92H9.63Z" fill="white"/>
<path d="M32.7402 67.86V68.24H26.7402V66.39C25.1602 67.54 23.7902 68.5 22.4402 68.5C20.2802 68.5 19.3402 67.25 19.3402 64.4V59.24L17.9702 58.06L24.1402 55.9V63.44C24.1402 65.46 24.3102 66.25 25.5102 66.25C25.8902 66.25 26.3302 66.15 26.7302 66.01V59.12L25.3602 57.94L31.5302 55.78V67.85H32.7302L32.7402 67.86Z" fill="white"/>
<path d="M46.7499 54.73V58.67L46.7299 58.69C45.5999 58.02 44.0699 57.27 42.9899 57.03C44.1199 57.87 44.7199 59.19 44.7199 60.77C44.7199 63.48 42.7299 65.52 39.4199 65.52C38.0799 65.52 36.8799 65.16 35.9399 64.54C35.6999 65.91 36.4399 66.92 38.5299 66.92H41.2899C44.0699 66.92 45.5899 67.78 45.5899 69.87C45.5899 72.61 42.6099 74.38 38.1999 74.38C34.6699 74.38 32.9399 73.66 32.9399 72.15C32.9399 71.43 33.5199 70.78 34.5199 70.4C33.9899 69.87 33.7499 69.15 33.7499 68.29C33.7499 66.97 34.2999 65.82 35.7199 64.38C34.6399 63.56 33.9899 62.32 33.9899 60.76C33.9899 58.12 36.0099 56.01 39.4899 56.01C40.7599 56.01 41.8399 56.3 42.6799 56.83C43.9799 56.13 45.2999 55.46 46.7399 54.72L46.7599 54.74L46.7499 54.73ZM34.6499 70.52C35.2299 72.75 37.1499 73.78 39.5899 73.78C41.4399 73.78 42.8999 73.11 42.8999 72.22C42.8999 71.67 42.1999 71.38 40.3099 71.38H37.7199C36.2999 71.38 35.2999 71.07 34.6499 70.52ZM42.0699 63.77C42.0699 63 41.6399 61.78 40.6299 59.98C39.2099 57.46 38.3699 56.64 37.6299 56.64C37.1299 56.64 36.6899 57.02 36.6899 57.7C36.6899 58.54 37.1699 59.72 38.1299 61.49C39.5199 64.06 40.4299 64.83 41.1499 64.83C41.6999 64.83 42.0599 64.47 42.0599 63.77H42.0699Z" fill="white"/>
<path d="M61.75 67.86V68.24H55.75V66.39C54.17 67.54 52.8 68.5 51.45 68.5C49.29 68.5 48.35 67.25 48.35 64.4V59.24L46.98 58.06L53.15 55.9V63.44C53.15 65.46 53.32 66.25 54.52 66.25C54.9 66.25 55.34 66.15 55.74 66.01V59.12L54.37 57.94L60.54 55.78V67.85H61.74L61.75 67.86Z" fill="white"/>
<path d="M62.7798 67.86L63.5198 63.95H63.5398L66.5198 67.93C66.8598 68.03 67.0198 68.05 67.3098 68.05C68.3698 68.05 69.0898 67.5 69.0898 66.51C69.0898 65.79 68.6598 65.38 67.6498 64.85L66.0698 64.01C64.0798 62.95 63.1198 61.83 63.1198 60C63.1198 57.58 65.0898 55.99 68.2798 55.99C69.8398 55.99 71.0898 56.25 72.2598 56.69L71.3198 60.48H71.2998L68.5198 56.52C68.3998 56.47 68.2298 56.45 68.1098 56.45C67.0498 56.45 66.5298 57.05 66.5298 57.72C66.5298 58.56 66.9098 59.16 68.3298 59.9L70.1298 60.86C71.7898 61.75 72.6498 62.95 72.6498 64.44C72.6498 66.94 70.1298 68.47 67.1798 68.47C66.0498 68.47 64.4698 68.35 62.7898 67.85L62.7798 67.86Z" fill="white"/>
<path d="M83.6399 66.03C82.7499 67.45 81.1699 68.48 78.9599 68.48C76.0999 68.48 74.9799 66.8 74.9799 63.68V56.86H73.1299V56.84L79.7799 51.61V56.48H83.1599V56.86H79.7799V62.45C79.7799 65.23 80.4299 66.27 82.1999 66.27C82.7299 66.27 83.1399 66.2 83.6199 66.01L83.6399 66.03Z" fill="white"/>
<path d="M89.5702 67.86H91.8502V55.38L88.9902 53.77V53.75L97.1302 50.37V67.87H99.4102V68.25H89.5702V67.87V67.86Z" fill="white"/>
<path d="M99.5698 67.59L100.67 61.81H100.69L103.81 68.15C103.98 68.22 104.17 68.25 104.34 68.25C105.71 68.25 107.05 66.59 107.05 63.23C107.05 60.49 106.07 58.93 103.93 58.93C102.68 58.93 101.72 59.27 100.93 59.87L100.86 59.85L102.13 50.97H112.21L111.44 55.29H102.03L101.45 59.13C102.72 58.41 104.07 58 105.82 58C109.92 58 112.32 59.9 112.32 62.97C112.32 66.33 109.61 68.73 105.14 68.73C102.76 68.73 101.25 68.3 99.5498 67.6L99.5698 67.59Z" fill="white"/>
<path d="M118.73 66.61C118.73 69.49 116.93 71.89 113.16 73.28V73.23C115.06 71.77 115.8 70.52 116.14 68.57C114.7 68.43 114.03 67.47 114.03 66.27C114.03 64.9 114.87 63.94 116.33 63.94C117.7 63.94 118.73 64.68 118.73 66.6V66.61Z" fill="white"/>
<path d="M138.07 62.51V68.25H125.4V68.23L126.62 66.67C130.87 61.27 132.38 58.17 132.38 54.81C132.38 52.27 131.73 50.95 130.58 50.95C130.41 50.95 130.24 50.97 130.1 51.02L127.6 57.96H127.58L125.59 51.98C127.29 51.07 129.21 50.49 131.3 50.49C135.64 50.49 137.9 52.05 137.9 54.88C137.9 57.71 135.88 59.7 129.21 63.93H137.59V62.51H138.07Z" fill="white"/>
<path d="M139.63 59.53C139.63 54.54 142.27 50.51 147.05 50.48C151.83 50.48 154.47 54.49 154.47 59.53C154.47 64.57 151.83 68.72 147.05 68.72C142.27 68.72 139.63 64.59 139.63 59.53ZM148.97 59.48C148.97 54.08 148.63 50.96 147.05 50.96C145.47 50.96 145.13 54.08 145.13 59.46C145.13 64.84 145.47 68.25 147.05 68.25C148.63 68.25 148.97 65.01 148.97 59.49V59.48Z" fill="white"/>
<path d="M168.21 62.51V68.25H155.54V68.23L156.76 66.67C161.01 61.27 162.52 58.17 162.52 54.81C162.52 52.27 161.87 50.95 160.72 50.95C160.55 50.95 160.38 50.97 160.24 51.02L157.74 57.96H157.72L155.73 51.98C157.43 51.07 159.35 50.49 161.44 50.49C165.78 50.49 168.04 52.05 168.04 54.88C168.04 57.71 166.02 59.7 159.35 63.93H167.73V62.51H168.21Z" fill="white"/>
<path d="M182.78 63.42C182.78 66.66 179.92 68.72 174.81 68.72C172.99 68.72 171.28 68.38 169.7 67.66L170.8 61.9H170.82L174.06 68.19C174.23 68.24 174.37 68.26 174.59 68.26C175.98 68.26 177.25 66.68 177.25 63.87C177.25 61.35 175.59 59.36 172.76 59.36V59.12C175.33 59.12 176.34 57.68 176.34 54.56C176.34 52.3 175.67 50.94 174.56 50.94C174.37 50.94 174.15 50.96 174.01 51.01L171.51 57.23H171.49L169.35 52.05C171.25 50.99 173.17 50.49 175.37 50.49C179.43 50.49 181.85 52.19 181.85 54.57C181.85 56.8 179.69 58.55 176.62 59.06C180.27 59.28 182.76 61.05 182.76 63.43L182.78 63.42Z" fill="white"/>
<path d="M19.59 100.96L17.45 102.26L10.54 118.73H9.29L1.9 102.26L0 100.96H9.82L7.68 102.26L12.41 113.13L15.63 102.26L12.77 100.96H19.59Z" fill="white"/>
<path d="M19.5601 117.86H20.7601V109.1L19.3901 107.92L25.5601 105.76V117.86H26.7601V118.24H19.5601V117.86ZM20.5001 102.67C20.5001 101.09 21.4601 100.01 23.1601 100.01C24.8601 100.01 25.8201 101.09 25.8201 102.67C25.8201 104.25 24.8601 105.36 23.1601 105.36C21.4601 105.36 20.5001 104.28 20.5001 102.67Z" fill="white"/>
<path d="M38.1402 106.05V112.41H38.1202C35.6202 109.65 34.5002 109.03 33.6602 109.17V117.86H35.4602V118.24H27.6602V117.86H28.8602V109.15L27.4902 107.97L33.6602 105.91V108.91C35.0302 107.11 36.5902 105.98 37.6902 105.98C37.8602 105.98 38.0002 106 38.1502 106.05H38.1402Z" fill="white"/>
<path d="M49.3899 116.03C48.4999 117.45 46.9199 118.48 44.7099 118.48C41.8499 118.48 40.7299 116.8 40.7299 113.68V106.86H38.8799V106.84L45.5299 101.61V106.48H48.9099V106.86H45.5299V112.45C45.5299 115.23 46.1799 116.27 47.9499 116.27C48.4799 116.27 48.8899 116.2 49.3699 116.01L49.3899 116.03Z" fill="white"/>
<path d="M64.0298 117.86V118.24H58.0298V116.39C56.4498 117.54 55.0798 118.5 53.7298 118.5C51.5698 118.5 50.6298 117.25 50.6298 114.4V109.24L49.2598 108.06L55.4298 105.9V113.44C55.4298 115.46 55.5998 116.25 56.7998 116.25C57.1798 116.25 57.6198 116.15 58.0198 116.01V109.12L56.6498 107.94L62.8198 105.78V117.85H64.0198L64.0298 117.86Z" fill="white"/>
<path d="M77.1598 117.86V118.24H71.1598V116.87C70.0298 117.83 68.7598 118.48 67.4398 118.48C65.8798 118.48 64.8198 117.59 64.8198 116.08C64.8198 113.87 67.1698 112.41 71.1598 111.98C71.1598 109.34 70.0998 108.02 68.2798 108.02C67.1998 108.02 66.4598 108.31 65.6398 108.93L65.5198 108.81C67.1498 106.99 68.9298 106 71.3298 106C74.3498 106 75.9598 107.73 75.9598 111.21V117.86H77.1598ZM71.1598 116.54V112.29C69.7198 112.7 69.1698 113.61 69.1698 114.88C69.1698 116.01 69.6498 116.61 70.6098 116.61C70.7498 116.61 70.9498 116.59 71.1598 116.54Z" fill="white"/>
<path d="M78.0499 117.86H79.2499V103.58L77.8799 102.4L84.0499 100.24V117.86H85.2499V118.24H78.0499V117.86Z" fill="white"/>
</g>
</g>
<defs>
<clipPath id="clip0_129_418">
<rect width="427" height="119" fill="white"/>
</clipPath>
<clipPath id="clip1_129_418">
<rect width="426.33" height="118.72" fill="white"/>
</clipPath>
</defs>
</svg>
